<mxfile host="app.diagrams.net" modified="2024-02-20T14:24:49.595Z" agent="Mozilla/5.0 (Windows NT 10.0; Win64; x64; rv:122.0) Gecko/20100101 Firefox/122.0" version="22.1.17" etag="y5MdJJ28J552wGi3mc_p" type="github">
  <diagram name="Seite-1" id="RFwwwBl6lyMIA-A_7-fm">
    <mxGraphModel>
      <root>
        <mxCell id="0" />
        <mxCell id="1" parent="0" />
      </root>
    </mxGraphModel>
  </diagram>
</mxfile>
